<?xml version="1.0" encoding="utf-8"?>
<!-- Generator: Adobe Illustrator 16.0.0, SVG Export Plug-In . SVG Version: 6.00 Build 0)  -->
<!DOCTYPE svg PUBLIC "-//W3C//DTD SVG 1.1//EN" "http://www.w3.org/Graphics/SVG/1.1/DTD/svg11.dtd">
<svg version="1.1" id="圖層_1" xmlns="http://www.w3.org/2000/svg" xmlns:xlink="http://www.w3.org/1999/xlink" x="0px" y="0px"
	 width="410px" height="410px" viewBox="0 0 410 410" enable-background="new 0 0 410 410" xml:space="preserve">
<g id="quickmark" transform="translate(40,40)">
	<rect width="10" height="10"/>
	<rect x="10" width="10" height="10"/>
	<rect x="20" width="10" height="10"/>
	<rect x="30" width="10" height="10"/>
	<rect x="40" width="10" height="10"/>
	<rect x="50" width="10" height="10"/>
	<rect x="60" width="10" height="10"/>
	<rect x="80" width="10" height="10"/>
	<rect x="100" width="10" height="10"/>
	<rect x="120" width="10" height="10"/>
	<rect x="140" width="10" height="10"/>
	<rect x="150" width="10" height="10"/>
	<rect x="160" width="10" height="10"/>
	<rect x="170" width="10" height="10"/>
	<rect x="180" width="10" height="10"/>
	<rect x="210" width="10" height="10"/>
	<rect x="230" width="10" height="10"/>
	<rect x="260" width="10" height="10"/>
	<rect x="270" width="10" height="10"/>
	<rect x="280" width="10" height="10"/>
	<rect x="290" width="10" height="10"/>
	<rect x="300" width="10" height="10"/>
	<rect x="310" width="10" height="10"/>
	<rect x="320" width="10" height="10"/>
	<rect y="10" width="10" height="10"/>
	<rect x="60" y="10" width="10" height="10"/>
	<rect x="100" y="10" width="10" height="10"/>
	<rect x="110" y="10" width="10" height="10"/>
	<rect x="170" y="10" width="10" height="10"/>
	<rect x="190" y="10" width="10" height="10"/>
	<rect x="200" y="10" width="10" height="10"/>
	<rect x="220" y="10" width="10" height="10"/>
	<rect x="240" y="10" width="10" height="10"/>
	<rect x="260" y="10" width="10" height="10"/>
	<rect x="320" y="10" width="10" height="10"/>
	<rect y="20" width="10" height="10"/>
	<rect x="20" y="20" width="10" height="10"/>
	<rect x="30" y="20" width="10" height="10"/>
	<rect x="40" y="20" width="10" height="10"/>
	<rect x="60" y="20" width="10" height="10"/>
	<rect x="100" y="20" width="10" height="10"/>
	<rect x="120" y="20" width="10" height="10"/>
	<rect x="130" y="20" width="10" height="10"/>
	<rect x="190" y="20" width="10" height="10"/>
	<rect x="200" y="20" width="10" height="10"/>
	<rect x="210" y="20" width="10" height="10"/>
	<rect x="230" y="20" width="10" height="10"/>
	<rect x="240" y="20" width="10" height="10"/>
	<rect x="260" y="20" width="10" height="10"/>
	<rect x="280" y="20" width="10" height="10"/>
	<rect x="290" y="20" width="10" height="10"/>
	<rect x="300" y="20" width="10" height="10"/>
	<rect x="320" y="20" width="10" height="10"/>
	<rect y="30" width="10" height="10"/>
	<rect x="20" y="30" width="10" height="10"/>
	<rect x="30" y="30" width="10" height="10"/>
	<rect x="40" y="30" width="10" height="10"/>
	<rect x="60" y="30" width="10" height="10"/>
	<rect x="80" y="30" width="10" height="10"/>
	<rect x="90" y="30" width="10" height="10"/>
	<rect x="100" y="30" width="10" height="10"/>
	<rect x="120" y="30" width="10" height="10"/>
	<rect x="140" y="30" width="10" height="10"/>
	<rect x="170" y="30" width="10" height="10"/>
	<rect x="180" y="30" width="10" height="10"/>
	<rect x="190" y="30" width="10" height="10"/>
	<rect x="200" y="30" width="10" height="10"/>
	<rect x="230" y="30" width="10" height="10"/>
	<rect x="260" y="30" width="10" height="10"/>
	<rect x="280" y="30" width="10" height="10"/>
	<rect x="290" y="30" width="10" height="10"/>
	<rect x="300" y="30" width="10" height="10"/>
	<rect x="320" y="30" width="10" height="10"/>
	<rect y="40" width="10" height="10"/>
	<rect x="20" y="40" width="10" height="10"/>
	<rect x="30" y="40" width="10" height="10"/>
	<rect x="40" y="40" width="10" height="10"/>
	<rect x="60" y="40" width="10" height="10"/>
	<rect x="80" y="40" width="10" height="10"/>
	<rect x="90" y="40" width="10" height="10"/>
	<rect x="100" y="40" width="10" height="10"/>
	<rect x="140" y="40" width="10" height="10"/>
	<rect x="180" y="40" width="10" height="10"/>
	<rect x="190" y="40" width="10" height="10"/>
	<rect x="200" y="40" width="10" height="10"/>
	<rect x="230" y="40" width="10" height="10"/>
	<rect x="260" y="40" width="10" height="10"/>
	<rect x="280" y="40" width="10" height="10"/>
	<rect x="290" y="40" width="10" height="10"/>
	<rect x="300" y="40" width="10" height="10"/>
	<rect x="320" y="40" width="10" height="10"/>
	<rect y="50" width="10" height="10"/>
	<rect x="60" y="50" width="10" height="10"/>
	<rect x="80" y="50" width="10" height="10"/>
	<rect x="110" y="50" width="10" height="10"/>
	<rect x="120" y="50" width="10" height="10"/>
	<rect x="160" y="50" width="10" height="10"/>
	<rect x="170" y="50" width="10" height="10"/>
	<rect x="180" y="50" width="10" height="10"/>
	<rect x="190" y="50" width="10" height="10"/>
	<rect x="210" y="50" width="10" height="10"/>
	<rect x="240" y="50" width="10" height="10"/>
	<rect x="260" y="50" width="10" height="10"/>
	<rect x="320" y="50" width="10" height="10"/>
	<rect y="60" width="10" height="10"/>
	<rect x="10" y="60" width="10" height="10"/>
	<rect x="20" y="60" width="10" height="10"/>
	<rect x="30" y="60" width="10" height="10"/>
	<rect x="40" y="60" width="10" height="10"/>
	<rect x="50" y="60" width="10" height="10"/>
	<rect x="60" y="60" width="10" height="10"/>
	<rect x="80" y="60" width="10" height="10"/>
	<rect x="100" y="60" width="10" height="10"/>
	<rect x="120" y="60" width="10" height="10"/>
	<rect x="140" y="60" width="10" height="10"/>
	<rect x="160" y="60" width="10" height="10"/>
	<rect x="180" y="60" width="10" height="10"/>
	<rect x="200" y="60" width="10" height="10"/>
	<rect x="220" y="60" width="10" height="10"/>
	<rect x="240" y="60" width="10" height="10"/>
	<rect x="260" y="60" width="10" height="10"/>
	<rect x="270" y="60" width="10" height="10"/>
	<rect x="280" y="60" width="10" height="10"/>
	<rect x="290" y="60" width="10" height="10"/>
	<rect x="300" y="60" width="10" height="10"/>
	<rect x="310" y="60" width="10" height="10"/>
	<rect x="320" y="60" width="10" height="10"/>
	<rect x="80" y="70" width="10" height="10"/>
	<rect x="150" y="70" width="10" height="10"/>
	<rect x="160" y="70" width="10" height="10"/>
	<rect x="170" y="70" width="10" height="10"/>
	<rect x="180" y="70" width="10" height="10"/>
	<rect x="210" y="70" width="10" height="10"/>
	<rect x="230" y="70" width="10" height="10"/>
	<rect x="240" y="70" width="10" height="10"/>
	<rect y="80" width="10" height="10"/>
	<rect x="40" y="80" width="10" height="10"/>
	<rect x="60" y="80" width="10" height="10"/>
	<rect x="70" y="80" width="10" height="10"/>
	<rect x="80" y="80" width="10" height="10"/>
	<rect x="90" y="80" width="10" height="10"/>
	<rect x="100" y="80" width="10" height="10"/>
	<rect x="170" y="80" width="10" height="10"/>
	<rect x="190" y="80" width="10" height="10"/>
	<rect x="200" y="80" width="10" height="10"/>
	<rect x="210" y="80" width="10" height="10"/>
	<rect x="220" y="80" width="10" height="10"/>
	<rect x="250" y="80" width="10" height="10"/>
	<rect x="260" y="80" width="10" height="10"/>
	<rect x="270" y="80" width="10" height="10"/>
	<rect x="280" y="80" width="10" height="10"/>
	<rect x="290" y="80" width="10" height="10"/>
	<rect x="320" y="80" width="10" height="10"/>
	<rect x="30" y="90" width="10" height="10"/>
	<rect x="40" y="90" width="10" height="10"/>
	<rect x="80" y="90" width="10" height="10"/>
	<rect x="90" y="90" width="10" height="10"/>
	<rect x="120" y="90" width="10" height="10"/>
	<rect x="130" y="90" width="10" height="10"/>
	<rect x="140" y="90" width="10" height="10"/>
	<rect x="150" y="90" width="10" height="10"/>
	<rect x="160" y="90" width="10" height="10"/>
	<rect x="180" y="90" width="10" height="10"/>
	<rect x="200" y="90" width="10" height="10"/>
	<rect x="210" y="90" width="10" height="10"/>
	<rect x="230" y="90" width="10" height="10"/>
	<rect x="270" y="90" width="10" height="10"/>
	<rect x="290" y="90" width="10" height="10"/>
	<rect x="300" y="90" width="10" height="10"/>
	<rect x="310" y="90" width="10" height="10"/>
	<rect x="50" y="100" width="10" height="10"/>
	<rect x="60" y="100" width="10" height="10"/>
	<rect x="70" y="100" width="10" height="10"/>
	<rect x="150" y="100" width="10" height="10"/>
	<rect x="170" y="100" width="10" height="10"/>
	<rect x="200" y="100" width="10" height="10"/>
	<rect x="210" y="100" width="10" height="10"/>
	<rect x="230" y="100" width="10" height="10"/>
	<rect x="250" y="100" width="10" height="10"/>
	<rect x="290" y="100" width="10" height="10"/>
	<rect x="310" y="100" width="10" height="10"/>
	<rect y="110" width="10" height="10"/>
	<rect x="10" y="110" width="10" height="10"/>
	<rect x="50" y="110" width="10" height="10"/>
	<rect x="70" y="110" width="10" height="10"/>
	<rect x="90" y="110" width="10" height="10"/>
	<rect x="120" y="110" width="10" height="10"/>
	<rect x="140" y="110" width="10" height="10"/>
	<rect x="150" y="110" width="10" height="10"/>
	<rect x="160" y="110" width="10" height="10"/>
	<rect x="170" y="110" width="10" height="10"/>
	<rect x="180" y="110" width="10" height="10"/>
	<rect x="200" y="110" width="10" height="10"/>
	<rect x="210" y="110" width="10" height="10"/>
	<rect x="220" y="110" width="10" height="10"/>
	<rect x="240" y="110" width="10" height="10"/>
	<rect x="250" y="110" width="10" height="10"/>
	<rect x="310" y="110" width="10" height="10"/>
	<rect x="320" y="110" width="10" height="10"/>
	<rect y="120" width="10" height="10"/>
	<rect x="30" y="120" width="10" height="10"/>
	<rect x="60" y="120" width="10" height="10"/>
	<rect x="70" y="120" width="10" height="10"/>
	<rect x="90" y="120" width="10" height="10"/>
	<rect x="100" y="120" width="10" height="10"/>
	<rect x="110" y="120" width="10" height="10"/>
	<rect x="130" y="120" width="10" height="10"/>
	<rect x="140" y="120" width="10" height="10"/>
	<rect x="180" y="120" width="10" height="10"/>
	<rect x="190" y="120" width="10" height="10"/>
	<rect x="200" y="120" width="10" height="10"/>
	<rect x="260" y="120" width="10" height="10"/>
	<rect x="280" y="120" width="10" height="10"/>
	<rect x="290" y="120" width="10" height="10"/>
	<rect y="130" width="10" height="10"/>
	<rect x="10" y="130" width="10" height="10"/>
	<rect x="20" y="130" width="10" height="10"/>
	<rect x="30" y="130" width="10" height="10"/>
	<rect x="50" y="130" width="10" height="10"/>
	<rect x="90" y="130" width="10" height="10"/>
	<rect x="110" y="130" width="10" height="10"/>
	<rect x="120" y="130" width="10" height="10"/>
	<rect x="130" y="130" width="10" height="10"/>
	<rect x="160" y="130" width="10" height="10"/>
	<rect x="170" y="130" width="10" height="10"/>
	<rect x="190" y="130" width="10" height="10"/>
	<rect x="210" y="130" width="10" height="10"/>
	<rect x="230" y="130" width="10" height="10"/>
	<rect x="270" y="130" width="10" height="10"/>
	<rect x="290" y="130" width="10" height="10"/>
	<rect x="300" y="130" width="10" height="10"/>
	<rect x="10" y="140" width="10" height="10"/>
	<rect x="30" y="140" width="10" height="10"/>
	<rect x="40" y="140" width="10" height="10"/>
	<rect x="60" y="140" width="10" height="10"/>
	<rect x="70" y="140" width="10" height="10"/>
	<rect x="80" y="140" width="10" height="10"/>
	<rect x="100" y="140" width="10" height="10"/>
	<rect x="110" y="140" width="10" height="10"/>
	<rect x="140" y="140" width="10" height="10"/>
	<rect x="160" y="140" width="10" height="10"/>
	<rect x="180" y="140" width="10" height="10"/>
	<rect x="190" y="140" width="10" height="10"/>
	<rect x="210" y="140" width="10" height="10"/>
	<rect x="220" y="140" width="10" height="10"/>
	<rect x="230" y="140" width="10" height="10"/>
	<rect x="250" y="140" width="10" height="10"/>
	<rect x="270" y="140" width="10" height="10"/>
	<rect x="290" y="140" width="10" height="10"/>
	<rect x="310" y="140" width="10" height="10"/>
	<rect x="40" y="150" width="10" height="10"/>
	<rect x="50" y="150" width="10" height="10"/>
	<rect x="100" y="150" width="10" height="10"/>
	<rect x="110" y="150" width="10" height="10"/>
	<rect x="130" y="150" width="10" height="10"/>
	<rect x="140" y="150" width="10" height="10"/>
	<rect x="170" y="150" width="10" height="10"/>
	<rect x="180" y="150" width="10" height="10"/>
	<rect x="190" y="150" width="10" height="10"/>
	<rect x="200" y="150" width="10" height="10"/>
	<rect x="210" y="150" width="10" height="10"/>
	<rect x="220" y="150" width="10" height="10"/>
	<rect x="230" y="150" width="10" height="10"/>
	<rect x="250" y="150" width="10" height="10"/>
	<rect x="260" y="150" width="10" height="10"/>
	<rect x="10" y="160" width="10" height="10"/>
	<rect x="20" y="160" width="10" height="10"/>
	<rect x="40" y="160" width="10" height="10"/>
	<rect x="50" y="160" width="10" height="10"/>
	<rect x="60" y="160" width="10" height="10"/>
	<rect x="70" y="160" width="10" height="10"/>
	<rect x="80" y="160" width="10" height="10"/>
	<rect x="130" y="160" width="10" height="10"/>
	<rect x="150" y="160" width="10" height="10"/>
	<rect x="170" y="160" width="10" height="10"/>
	<rect x="200" y="160" width="10" height="10"/>
	<rect x="210" y="160" width="10" height="10"/>
	<rect x="220" y="160" width="10" height="10"/>
	<rect x="230" y="160" width="10" height="10"/>
	<rect x="240" y="160" width="10" height="10"/>
	<rect x="260" y="160" width="10" height="10"/>
	<rect x="280" y="160" width="10" height="10"/>
	<rect x="310" y="160" width="10" height="10"/>
	<rect x="10" y="170" width="10" height="10"/>
	<rect x="30" y="170" width="10" height="10"/>
	<rect x="110" y="170" width="10" height="10"/>
	<rect x="130" y="170" width="10" height="10"/>
	<rect x="140" y="170" width="10" height="10"/>
	<rect x="150" y="170" width="10" height="10"/>
	<rect x="160" y="170" width="10" height="10"/>
	<rect x="170" y="170" width="10" height="10"/>
	<rect x="180" y="170" width="10" height="10"/>
	<rect x="210" y="170" width="10" height="10"/>
	<rect x="230" y="170" width="10" height="10"/>
	<rect x="290" y="170" width="10" height="10"/>
	<rect x="300" y="170" width="10" height="10"/>
	<rect x="310" y="170" width="10" height="10"/>
	<rect y="180" width="10" height="10"/>
	<rect x="30" y="180" width="10" height="10"/>
	<rect x="60" y="180" width="10" height="10"/>
	<rect x="70" y="180" width="10" height="10"/>
	<rect x="80" y="180" width="10" height="10"/>
	<rect x="90" y="180" width="10" height="10"/>
	<rect x="130" y="180" width="10" height="10"/>
	<rect x="150" y="180" width="10" height="10"/>
	<rect x="160" y="180" width="10" height="10"/>
	<rect x="180" y="180" width="10" height="10"/>
	<rect x="200" y="180" width="10" height="10"/>
	<rect x="230" y="180" width="10" height="10"/>
	<rect x="250" y="180" width="10" height="10"/>
	<rect x="290" y="180" width="10" height="10"/>
	<rect y="190" width="10" height="10"/>
	<rect x="20" y="190" width="10" height="10"/>
	<rect x="40" y="190" width="10" height="10"/>
	<rect x="50" y="190" width="10" height="10"/>
	<rect x="70" y="190" width="10" height="10"/>
	<rect x="80" y="190" width="10" height="10"/>
	<rect x="110" y="190" width="10" height="10"/>
	<rect x="130" y="190" width="10" height="10"/>
	<rect x="150" y="190" width="10" height="10"/>
	<rect x="160" y="190" width="10" height="10"/>
	<rect x="190" y="190" width="10" height="10"/>
	<rect x="220" y="190" width="10" height="10"/>
	<rect x="240" y="190" width="10" height="10"/>
	<rect x="250" y="190" width="10" height="10"/>
	<rect x="260" y="190" width="10" height="10"/>
	<rect y="200" width="10" height="10"/>
	<rect x="20" y="200" width="10" height="10"/>
	<rect x="40" y="200" width="10" height="10"/>
	<rect x="50" y="200" width="10" height="10"/>
	<rect x="60" y="200" width="10" height="10"/>
	<rect x="130" y="200" width="10" height="10"/>
	<rect x="150" y="200" width="10" height="10"/>
	<rect x="160" y="200" width="10" height="10"/>
	<rect x="190" y="200" width="10" height="10"/>
	<rect x="220" y="200" width="10" height="10"/>
	<rect x="230" y="200" width="10" height="10"/>
	<rect x="240" y="200" width="10" height="10"/>
	<rect x="260" y="200" width="10" height="10"/>
	<rect x="280" y="200" width="10" height="10"/>
	<rect x="290" y="200" width="10" height="10"/>
	<rect x="10" y="210" width="10" height="10"/>
	<rect x="40" y="210" width="10" height="10"/>
	<rect x="50" y="210" width="10" height="10"/>
	<rect x="80" y="210" width="10" height="10"/>
	<rect x="90" y="210" width="10" height="10"/>
	<rect x="100" y="210" width="10" height="10"/>
	<rect x="120" y="210" width="10" height="10"/>
	<rect x="140" y="210" width="10" height="10"/>
	<rect x="170" y="210" width="10" height="10"/>
	<rect x="180" y="210" width="10" height="10"/>
	<rect x="190" y="210" width="10" height="10"/>
	<rect x="200" y="210" width="10" height="10"/>
	<rect x="210" y="210" width="10" height="10"/>
	<rect x="230" y="210" width="10" height="10"/>
	<rect x="270" y="210" width="10" height="10"/>
	<rect x="300" y="210" width="10" height="10"/>
	<rect x="310" y="210" width="10" height="10"/>
	<rect y="220" width="10" height="10"/>
	<rect x="10" y="220" width="10" height="10"/>
	<rect x="50" y="220" width="10" height="10"/>
	<rect x="60" y="220" width="10" height="10"/>
	<rect x="90" y="220" width="10" height="10"/>
	<rect x="100" y="220" width="10" height="10"/>
	<rect x="120" y="220" width="10" height="10"/>
	<rect x="130" y="220" width="10" height="10"/>
	<rect x="140" y="220" width="10" height="10"/>
	<rect x="150" y="220" width="10" height="10"/>
	<rect x="170" y="220" width="10" height="10"/>
	<rect x="180" y="220" width="10" height="10"/>
	<rect x="200" y="220" width="10" height="10"/>
	<rect x="210" y="220" width="10" height="10"/>
	<rect x="220" y="220" width="10" height="10"/>
	<rect x="230" y="220" width="10" height="10"/>
	<rect x="250" y="220" width="10" height="10"/>
	<rect x="280" y="220" width="10" height="10"/>
	<rect x="310" y="220" width="10" height="10"/>
	<rect y="230" width="10" height="10"/>
	<rect x="10" y="230" width="10" height="10"/>
	<rect x="40" y="230" width="10" height="10"/>
	<rect x="50" y="230" width="10" height="10"/>
	<rect x="70" y="230" width="10" height="10"/>
	<rect x="80" y="230" width="10" height="10"/>
	<rect x="110" y="230" width="10" height="10"/>
	<rect x="130" y="230" width="10" height="10"/>
	<rect x="140" y="230" width="10" height="10"/>
	<rect x="150" y="230" width="10" height="10"/>
	<rect x="160" y="230" width="10" height="10"/>
	<rect x="170" y="230" width="10" height="10"/>
	<rect x="180" y="230" width="10" height="10"/>
	<rect x="210" y="230" width="10" height="10"/>
	<rect x="240" y="230" width="10" height="10"/>
	<rect x="250" y="230" width="10" height="10"/>
	<rect x="260" y="230" width="10" height="10"/>
	<rect x="270" y="230" width="10" height="10"/>
	<rect x="280" y="230" width="10" height="10"/>
	<rect x="320" y="230" width="10" height="10"/>
	<rect x="50" y="240" width="10" height="10"/>
	<rect x="60" y="240" width="10" height="10"/>
	<rect x="90" y="240" width="10" height="10"/>
	<rect x="100" y="240" width="10" height="10"/>
	<rect x="110" y="240" width="10" height="10"/>
	<rect x="120" y="240" width="10" height="10"/>
	<rect x="140" y="240" width="10" height="10"/>
	<rect x="170" y="240" width="10" height="10"/>
	<rect x="180" y="240" width="10" height="10"/>
	<rect x="190" y="240" width="10" height="10"/>
	<rect x="210" y="240" width="10" height="10"/>
	<rect x="220" y="240" width="10" height="10"/>
	<rect x="230" y="240" width="10" height="10"/>
	<rect x="240" y="240" width="10" height="10"/>
	<rect x="250" y="240" width="10" height="10"/>
	<rect x="260" y="240" width="10" height="10"/>
	<rect x="270" y="240" width="10" height="10"/>
	<rect x="280" y="240" width="10" height="10"/>
	<rect x="290" y="240" width="10" height="10"/>
	<rect x="80" y="250" width="10" height="10"/>
	<rect x="100" y="250" width="10" height="10"/>
	<rect x="110" y="250" width="10" height="10"/>
	<rect x="120" y="250" width="10" height="10"/>
	<rect x="130" y="250" width="10" height="10"/>
	<rect x="150" y="250" width="10" height="10"/>
	<rect x="160" y="250" width="10" height="10"/>
	<rect x="180" y="250" width="10" height="10"/>
	<rect x="240" y="250" width="10" height="10"/>
	<rect x="280" y="250" width="10" height="10"/>
	<rect x="300" y="250" width="10" height="10"/>
	<rect x="310" y="250" width="10" height="10"/>
	<rect y="260" width="10" height="10"/>
	<rect x="10" y="260" width="10" height="10"/>
	<rect x="20" y="260" width="10" height="10"/>
	<rect x="30" y="260" width="10" height="10"/>
	<rect x="40" y="260" width="10" height="10"/>
	<rect x="50" y="260" width="10" height="10"/>
	<rect x="60" y="260" width="10" height="10"/>
	<rect x="80" y="260" width="10" height="10"/>
	<rect x="110" y="260" width="10" height="10"/>
	<rect x="120" y="260" width="10" height="10"/>
	<rect x="140" y="260" width="10" height="10"/>
	<rect x="150" y="260" width="10" height="10"/>
	<rect x="170" y="260" width="10" height="10"/>
	<rect x="200" y="260" width="10" height="10"/>
	<rect x="210" y="260" width="10" height="10"/>
	<rect x="220" y="260" width="10" height="10"/>
	<rect x="240" y="260" width="10" height="10"/>
	<rect x="260" y="260" width="10" height="10"/>
	<rect x="280" y="260" width="10" height="10"/>
	<rect x="290" y="260" width="10" height="10"/>
	<rect x="310" y="260" width="10" height="10"/>
	<rect y="270" width="10" height="10"/>
	<rect x="60" y="270" width="10" height="10"/>
	<rect x="110" y="270" width="10" height="10"/>
	<rect x="160" y="270" width="10" height="10"/>
	<rect x="170" y="270" width="10" height="10"/>
	<rect x="180" y="270" width="10" height="10"/>
	<rect x="200" y="270" width="10" height="10"/>
	<rect x="210" y="270" width="10" height="10"/>
	<rect x="230" y="270" width="10" height="10"/>
	<rect x="240" y="270" width="10" height="10"/>
	<rect x="280" y="270" width="10" height="10"/>
	<rect x="290" y="270" width="10" height="10"/>
	<rect x="310" y="270" width="10" height="10"/>
	<rect y="280" width="10" height="10"/>
	<rect x="20" y="280" width="10" height="10"/>
	<rect x="30" y="280" width="10" height="10"/>
	<rect x="40" y="280" width="10" height="10"/>
	<rect x="60" y="280" width="10" height="10"/>
	<rect x="80" y="280" width="10" height="10"/>
	<rect x="100" y="280" width="10" height="10"/>
	<rect x="120" y="280" width="10" height="10"/>
	<rect x="130" y="280" width="10" height="10"/>
	<rect x="140" y="280" width="10" height="10"/>
	<rect x="180" y="280" width="10" height="10"/>
	<rect x="190" y="280" width="10" height="10"/>
	<rect x="200" y="280" width="10" height="10"/>
	<rect x="240" y="280" width="10" height="10"/>
	<rect x="250" y="280" width="10" height="10"/>
	<rect x="260" y="280" width="10" height="10"/>
	<rect x="270" y="280" width="10" height="10"/>
	<rect x="280" y="280" width="10" height="10"/>
	<rect x="290" y="280" width="10" height="10"/>
	<rect x="320" y="280" width="10" height="10"/>
	<rect y="290" width="10" height="10"/>
	<rect x="20" y="290" width="10" height="10"/>
	<rect x="30" y="290" width="10" height="10"/>
	<rect x="40" y="290" width="10" height="10"/>
	<rect x="60" y="290" width="10" height="10"/>
	<rect x="90" y="290" width="10" height="10"/>
	<rect x="110" y="290" width="10" height="10"/>
	<rect x="120" y="290" width="10" height="10"/>
	<rect x="130" y="290" width="10" height="10"/>
	<rect x="140" y="290" width="10" height="10"/>
	<rect x="160" y="290" width="10" height="10"/>
	<rect x="170" y="290" width="10" height="10"/>
	<rect x="190" y="290" width="10" height="10"/>
	<rect x="210" y="290" width="10" height="10"/>
	<rect x="220" y="290" width="10" height="10"/>
	<rect x="230" y="290" width="10" height="10"/>
	<rect x="260" y="290" width="10" height="10"/>
	<rect x="280" y="290" width="10" height="10"/>
	<rect x="290" y="290" width="10" height="10"/>
	<rect x="300" y="290" width="10" height="10"/>
	<rect x="310" y="290" width="10" height="10"/>
	<rect y="300" width="10" height="10"/>
	<rect x="20" y="300" width="10" height="10"/>
	<rect x="30" y="300" width="10" height="10"/>
	<rect x="40" y="300" width="10" height="10"/>
	<rect x="60" y="300" width="10" height="10"/>
	<rect x="110" y="300" width="10" height="10"/>
	<rect x="120" y="300" width="10" height="10"/>
	<rect x="140" y="300" width="10" height="10"/>
	<rect x="160" y="300" width="10" height="10"/>
	<rect x="180" y="300" width="10" height="10"/>
	<rect x="190" y="300" width="10" height="10"/>
	<rect x="250" y="300" width="10" height="10"/>
	<rect x="260" y="300" width="10" height="10"/>
	<rect x="270" y="300" width="10" height="10"/>
	<rect x="280" y="300" width="10" height="10"/>
	<rect x="290" y="300" width="10" height="10"/>
	<rect y="310" width="10" height="10"/>
	<rect x="60" y="310" width="10" height="10"/>
	<rect x="120" y="310" width="10" height="10"/>
	<rect x="130" y="310" width="10" height="10"/>
	<rect x="140" y="310" width="10" height="10"/>
	<rect x="170" y="310" width="10" height="10"/>
	<rect x="180" y="310" width="10" height="10"/>
	<rect x="190" y="310" width="10" height="10"/>
	<rect x="200" y="310" width="10" height="10"/>
	<rect x="210" y="310" width="10" height="10"/>
	<rect x="220" y="310" width="10" height="10"/>
	<rect x="230" y="310" width="10" height="10"/>
	<rect x="240" y="310" width="10" height="10"/>
	<rect x="270" y="310" width="10" height="10"/>
	<rect y="320" width="10" height="10"/>
	<rect x="10" y="320" width="10" height="10"/>
	<rect x="20" y="320" width="10" height="10"/>
	<rect x="30" y="320" width="10" height="10"/>
	<rect x="40" y="320" width="10" height="10"/>
	<rect x="50" y="320" width="10" height="10"/>
	<rect x="60" y="320" width="10" height="10"/>
	<rect x="80" y="320" width="10" height="10"/>
	<rect x="100" y="320" width="10" height="10"/>
	<rect x="120" y="320" width="10" height="10"/>
	<rect x="150" y="320" width="10" height="10"/>
	<rect x="170" y="320" width="10" height="10"/>
	<rect x="200" y="320" width="10" height="10"/>
	<rect x="210" y="320" width="10" height="10"/>
	<rect x="220" y="320" width="10" height="10"/>
	<rect x="240" y="320" width="10" height="10"/>
	<rect x="280" y="320" width="10" height="10"/>
	<rect x="320" y="320" width="10" height="10"/>
</g>
<path d="M98.241,14.872c-0.421-0.013-0.631,0.056-0.631,0.21c0.766,0.457,1.147,1.069,1.147,1.832c0,0.306,0.051,0.511,0.154,0.611
	c0.355,0.764,0.918,0.994,1.684,0.688c0.815-0.406,1.173-1.043,1.072-1.91c-0.104-0.508-0.613-0.889-1.531-1.146
	C99.295,14.979,98.662,14.884,98.241,14.872L98.241,14.872z M79.575,14.944c-0.636-0.01-0.85,0.316-0.641,0.978v3.666h-3.598
	c-0.306,0-0.842-0.254-1.607-0.764c-0.357-0.152-0.612-0.178-0.766-0.075c-0.153,0.102-0.205,0.332-0.154,0.687v6.8
	c-0.103,0.969,0.332,1.325,1.302,1.069c0.815-0.049,1.198-0.482,1.148-1.299v-0.84h3.675v6.801c-0.103,0.865,0.28,1.195,1.148,0.992
	c0.969-0.153,1.428-0.586,1.378-1.299v-6.417h3.674v0.916c0,0.765,0.306,1.045,0.919,0.841c1.225-0.102,1.785-0.612,1.684-1.529
	v-4.812l0.152-0.152c0.204-0.102,0.357-0.229,0.461-0.383c-0.512-0.916-1.43-1.577-2.757-1.986
	c-0.205,0.052-0.459,0.357-0.766,0.917c-0.153,0.306-0.256,0.458-0.306,0.458h-3.062v-3.437l0.154-0.153
	c0.561-0.508,0.05-0.814-1.531-0.916C79.889,14.967,79.721,14.947,79.575,14.944L79.575,14.944z M125.396,15.158
	c-0.153,0.051-0.357,0.256-0.611,0.61c-0.205,0.204-0.334,0.307-0.384,0.307h-9.874c-1.277-0.458-1.99-0.688-2.144-0.688
	c-0.257,0-0.358,0.204-0.306,0.611v15.891c-0.053,0.457,0.152,0.66,0.612,0.611c1.02-0.152,1.53-0.459,1.53-0.917v-2.826
	c0.766-0.712,1.786-1.987,3.062-3.82c0.154,0.611,0.229,1.121,0.229,1.529c0.051,0.968,0.537,1.298,1.455,0.992
	c-0.409,0.561-0.918,1.146-1.529,1.757c-0.461,0.459-0.641,0.714-0.537,0.764c1.836-0.916,3.521-2.494,5.053-4.735
	c0.102,0.407,0.152,0.942,0.152,1.604c0.051,0.917,0.383,1.325,0.996,1.222c0.967-0.152,1.402-0.764,1.301-1.833
	c-0.256-1.019-0.766-2.036-1.532-3.056c0.153-0.459,0.357-1.043,0.612-1.758c0.153-0.406,0.281-0.712,0.384-0.916
	c0.101-0.254,0.254-0.484,0.459-0.688c0.202-0.203,0.331-0.407,0.382-0.611c-0.663-0.713-1.606-1.07-2.832-1.07
	c-0.102,0.052-0.152,0.229-0.152,0.535c-0.051,0.815-0.205,1.758-0.459,2.828c-0.154-0.103-0.357-0.256-0.612-0.46
	c-0.46-0.458-0.894-0.891-1.302-1.299c0.051-0.101,0.178-0.203,0.383-0.306c0.153-0.102,0.229-0.178,0.229-0.229
	c-0.612-0.712-1.479-1.069-2.603-1.069c-0.154,0.052-0.229,0.306-0.229,0.766c0,0.763-0.076,1.578-0.229,2.443
	c-0.562-0.56-1.455-1.35-2.68-2.369v-1.222c-0.103-0.917,0.307-1.348,1.225-1.298h9.492v12.91c0,0.662-0.842,1.045-2.527,1.146
	l-0.688,0.076c-0.053,0.051,0.049,0.076,0.307,0.076c1.02,0.203,1.606,0.561,1.76,1.07c0,0.05,0.025,0.152,0.077,0.305
	c0.101,0.51,0.56,0.688,1.378,0.535c1.53-0.104,2.22-0.815,2.066-2.138V17.68c0-0.051,0.102-0.152,0.305-0.306
	c0.357-0.153,0.537-0.307,0.537-0.458C127.183,15.999,126.264,15.414,125.396,15.158L125.396,15.158z M41.848,16.896v0.78
	c0.199,0.015,0.465,0.059,0.798,0.132c0.334,0.074,0.601,0.157,0.798,0.252c0.256,0.118,0.426,0.27,0.506,0.457
	c0.08,0.186,0.122,0.4,0.122,0.642v11.252c0,0.263-0.05,0.489-0.149,0.675c-0.099,0.188-0.258,0.328-0.479,0.423
	c-0.109,0.052-0.349,0.094-0.715,0.127c-0.367,0.032-0.661,0.057-0.881,0.072v0.779h6.771v-0.779
	c-0.191-0.008-0.47-0.05-0.837-0.122c-0.367-0.072-0.606-0.135-0.715-0.187c-0.242-0.116-0.412-0.271-0.506-0.46
	c-0.095-0.19-0.143-0.406-0.143-0.646v-5.365h1.798c0.471,0,0.874,0.049,1.208,0.148c0.328,0.096,0.62,0.288,0.834,0.556
	c0.146,0.183,0.285,0.479,0.413,0.89c0.129,0.41,0.204,0.776,0.227,1.099h0.826v-6.132h-0.826c-0.037,0.389-0.116,0.754-0.238,1.094
	c-0.122,0.342-0.255,0.592-0.402,0.753c-0.213,0.233-0.478,0.413-0.773,0.521c-0.302,0.115-0.725,0.172-1.269,0.172h-1.799v-6.263
	h2.62c0.396,0,0.75,0.007,1.062,0.022c0.312,0.015,0.582,0.036,0.809,0.065c0.448,0.066,0.916,0.429,1.403,1.089
	c0.489,0.658,0.809,1.277,0.963,1.855h0.826v-3.9H41.848z M55.702,16.896v4.229h0.77c0.066-0.242,0.184-0.546,0.353-0.917
	c0.167-0.365,0.361-0.715,0.583-1.05c0.21-0.318,0.453-0.613,0.721-0.884c0.261-0.26,0.513-0.404,0.754-0.435
	c0.322-0.037,0.645-0.061,0.969-0.07c0.338-0.013,0.62-0.017,0.848-0.017h0.639v12.569c0,0.3-0.058,0.54-0.171,0.72
	c-0.114,0.18-0.292,0.316-0.534,0.412c-0.161,0.064-0.453,0.12-0.874,0.164c-0.422,0.044-0.736,0.074-0.942,0.089v0.779h7.375
	v-0.779c-0.235-0.008-0.563-0.056-0.985-0.144c-0.422-0.088-0.699-0.158-0.831-0.209c-0.258-0.11-0.438-0.265-0.54-0.467
	c-0.103-0.201-0.154-0.424-0.154-0.664V17.753h0.64c0.294,0,0.615,0.008,0.96,0.022c0.347,0.015,0.633,0.037,0.861,0.065
	c0.243,0.037,0.494,0.183,0.756,0.435s0.502,0.547,0.722,0.884c0.217,0.329,0.411,0.673,0.58,1.028
	c0.172,0.363,0.292,0.676,0.358,0.939h0.759v-4.23H55.702z M106.336,17.067c-0.204,0-0.561,0.383-1.07,1.147
	c-0.357,0.561-0.562,0.839-0.613,0.839H92.1c-0.205,0.052-0.307,0.128-0.307,0.23c0.05,0.103,0.203,0.151,0.459,0.151h3.904
	c0.51,3.108,1.428,5.68,2.756,7.717c-1.684,2.038-4.083,3.82-7.195,5.348c-0.612,0.509-0.153,0.535,1.378,0.076
	c3.011-1.12,5.408-2.393,7.194-3.819c1.48,1.479,3.342,2.622,5.589,3.438c0.714,0.255,1.122,0.103,1.224-0.458
	c0.308-0.714,0.766-1.196,1.379-1.451c0.102-0.05,0.229-0.127,0.382-0.229c0.46-0.202,0.484-0.356,0.077-0.458
	c-3.062-0.51-5.41-1.477-7.043-2.904c0.919-1.323,1.812-3.183,2.68-5.576c0.051-0.153,0.203-0.331,0.459-0.535
	c0.203-0.153,0.332-0.332,0.383-0.534c-0.051-0.203-0.587-0.407-1.607-0.612h4.439c0.307,0.053,0.484,0,0.536-0.151
	c0.05-0.103-0.026-0.28-0.229-0.535C107.588,17.73,106.846,17.171,106.336,17.067L106.336,17.067z M96.463,19.436h5.664
	c-0.562,2.446-1.251,4.381-2.066,5.807C98.579,23.971,97.381,22.033,96.463,19.436z M114.221,19.436
	c0.766,0.867,1.531,2.013,2.297,3.438c-0.562,2.191-1.328,3.974-2.297,5.349V19.436z M76.102,19.895h2.832v4.966h-3.675V20.43
	C75.208,20.074,75.489,19.895,76.102,19.895L76.102,19.895z M81.458,19.895h3.675v4.966h-3.674L81.458,19.895L81.458,19.895z
	 M119.197,20.201c0.662,0.916,1.225,1.832,1.682,2.749c-0.309,1.13-0.719,2.229-1.223,3.285c-0.154-0.917-0.639-1.986-1.455-3.209
	c0.103-0.253,0.307-0.839,0.613-1.756C118.918,20.905,119.047,20.549,119.197,20.201L119.197,20.201z"/>
</svg>
