<svg xmlns="http://www.w3.org/2000/svg" width="470" height="100" viewBox="0 0 470 100"><path d="M306.623 1.48c-2.25-.07-3.378.305-3.378 1.122 4.094 2.452 6.14 5.72 6.14 9.807 0 1.633.27 2.726.82 3.268 1.905 4.086 4.912 5.312 9.006 3.677 4.364-2.177 6.276-5.58 5.733-10.215-.55-2.72-3.276-4.76-8.19-6.13-4.5-.95-7.878-1.462-10.13-1.53zm-99.845.39c-3.398-.052-4.54 1.692-3.427 5.23v19.61h-19.24c-1.64 0-4.504-1.36-8.598-4.086-1.913-.816-3.275-.95-4.094-.408-.82.55-1.097 1.777-.822 3.68V62.26c-.55 5.18 1.774 7.088 6.962 5.722 4.363-.268 6.407-2.588 6.14-6.95V56.54h19.653v36.37c-.55 4.628 1.497 6.396 6.142 5.31 5.182-.817 7.637-3.134 7.37-6.946V56.95h19.65v4.903c0 4.086 1.638 5.586 4.913 4.494 6.55-.543 9.547-3.27 9.005-8.174V32.43l.82-.817c1.088-.542 1.907-1.225 2.457-2.043-2.732-4.902-7.644-8.44-14.738-10.623-1.096.274-2.458 1.91-4.095 4.903-.82 1.634-1.37 2.452-1.638 2.452H216.86V7.916l.82-.817c3-2.72.268-4.355-8.188-4.904-1.025-.204-1.93-.313-2.714-.325zm245.08 1.143c-.82.275-1.913 1.367-3.276 3.27-1.093 1.09-1.78 1.633-2.047 1.633h-52.813c-6.826-2.452-10.644-3.68-11.463-3.68-1.37 0-1.914 1.092-1.638 3.27v84.99c-.276 2.45.818 3.536 3.275 3.27 5.456-.818 8.188-2.453 8.188-4.905V75.744c4.094-3.81 9.55-10.623 16.378-20.43.82 3.27 1.228 5.996 1.228 8.174.27 5.178 2.867 6.946 7.78 5.312-2.19 3-4.913 6.128-8.188 9.397-2.457 2.452-3.416 3.818-2.866 4.086 9.826-4.903 18.832-13.344 27.02-25.334.545 2.182.82 5.043.82 8.58.268 4.903 2.05 7.087 5.323 6.538 5.18-.818 7.503-4.086 6.96-9.807-1.37-5.445-4.096-10.89-8.19-16.343.817-2.45 1.905-5.58 3.274-9.398.818-2.177 1.498-3.812 2.048-4.904.544-1.36 1.362-2.586 2.456-3.678 1.086-1.085 1.772-2.176 2.047-3.27-3.55-3.81-8.598-5.72-15.148-5.72-.55.275-.82 1.227-.82 2.86-.274 4.362-1.093 9.4-2.455 15.12-.818-.544-1.913-1.36-3.275-2.452-2.457-2.452-4.78-4.765-6.96-6.95.268-.54.952-1.082 2.047-1.63.82-.544 1.228-.954 1.228-1.23-3.276-3.81-7.92-5.72-13.92-5.72-.82.275-1.228 1.637-1.228 4.09 0 4.085-.41 8.446-1.23 13.074-3.007-2.994-7.78-7.216-14.33-12.67v-6.534c-.55-4.904 1.64-7.214 6.55-6.946h50.767v69.054c0 3.543-4.503 5.587-13.51 6.13l-3.684.408c-.275.274.268.408 1.638.408 5.455 1.086 8.597 2.994 9.416 5.72 0 .27.135.818.41 1.635.542 2.72 3 3.678 7.37 2.86 8.187-.548 11.872-4.36 11.052-11.44V16.497c0-.268.544-.816 1.638-1.634 1.906-.818 2.866-1.634 2.866-2.452-5.188-4.902-10.1-8.03-14.74-9.397zM5 12.31v4.172c1.06.08 2.483.314 4.27.705 1.785.393 3.21.843 4.268 1.35 1.373.63 2.275 1.442 2.707 2.442.432.996.65 2.142.65 3.435V84.59c0 1.41-.266 2.616-.795 3.615-.53.998-1.384 1.753-2.562 2.26-.588.277-1.865.502-3.828.678-1.963.175-3.532.304-4.71.382v4.172h36.212v-4.172c-1.022-.038-2.513-.255-4.475-.646-1.964-.392-3.24-.724-3.827-.998-1.296-.625-2.2-1.446-2.71-2.463-.51-1.018-.764-2.172-.764-3.46V55.266h9.62c2.52 0 4.673.265 6.464.793a8.89 8.89 0 0 1 4.457 2.97c.787.98 1.523 2.565 2.212 4.758.688 2.195 1.09 4.155 1.21 5.88h4.415V36.874H53.4c-.2 2.076-.62 4.027-1.27 5.848-.65 1.82-1.366 3.163-2.153 4.024a10.498 10.498 0 0 1-4.134 2.79c-1.612.61-3.875.914-6.786.914h-9.62V16.955H43.45c2.12 0 4.013.038 5.682.117 1.67.08 3.11.196 4.327.352 2.393.354 4.897 2.293 7.507 5.82 2.61 3.526 4.326 6.836 5.15 9.93h4.416V12.31H5zm74.095 0v22.623h4.12c.354-1.294.983-2.926 1.887-4.906a39.95 39.95 0 0 1 3.12-5.612 30.94 30.94 0 0 1 3.857-4.73c1.392-1.39 2.738-2.163 4.032-2.32a60.197 60.197 0 0 1 5.18-.382c1.805-.06 3.318-.088 4.535-.088h3.414v67.227c0 1.607-.305 2.89-.912 3.85-.61.96-1.56 1.695-2.855 2.204-.863.35-2.424.646-4.68.88-2.258.236-3.935.393-5.034.47V95.7h39.445v-4.173c-1.257-.038-3.012-.294-5.27-.764-2.257-.47-3.737-.842-4.444-1.116-1.373-.59-2.336-1.42-2.884-2.498-.55-1.078-.826-2.264-.826-3.556v-66.7h3.423c1.575 0 3.286.04 5.135.117 1.85.08 3.383.2 4.603.355 1.3.196 2.647.97 4.044 2.32 1.398 1.35 2.684 2.928 3.866 4.73a45.188 45.188 0 0 1 3.097 5.496c.924 1.94 1.565 3.615 1.918 5.025h4.062V12.31H79.095zm270.822.918c-1.095 0-3.007 2.043-5.732 6.13-1.912 3-3.008 4.494-3.276 4.494h-67.142c-1.094.275-1.638.684-1.638 1.226.27.55 1.088.817 2.456.817h20.882c2.725 16.62 7.638 30.377 14.74 41.27-9.008 10.898-21.84 20.43-38.485 28.602-3.275 2.72-.82 2.86 7.37.408 16.1-5.995 28.926-12.8 38.483-20.43 7.913 7.905 17.873 14.027 29.886 18.387 3.818 1.36 6 .543 6.55-2.45 1.638-3.82 4.095-6.398 7.37-7.765.543-.267 1.227-.677 2.047-1.225 2.454-1.086 2.59-1.903.408-2.452-16.376-2.72-28.935-7.898-37.667-15.527 4.915-7.08 9.688-17.023 14.332-29.83.27-.818 1.088-1.77 2.456-2.86 1.087-.82 1.773-1.77 2.048-2.86-.275-1.087-3.143-2.176-8.6-3.268h23.745c1.64.275 2.593 0 2.867-.817.268-.542-.14-1.494-1.228-2.86-5.188-5.446-9.15-8.44-11.873-8.99zm-52.814 12.667H327.4c-3.008 13.076-6.69 23.43-11.055 31.052-7.92-6.805-14.33-17.16-19.242-31.052zm94.982 0c4.094 4.635 8.188 10.763 12.282 18.385-3.007 11.716-7.1 21.248-12.282 28.603V25.895zm-203.88 2.452h15.148v26.56H183.7v-23.7c-.276-1.903 1.23-2.86 4.505-2.86zm28.656 0h19.652v26.56h-19.65v-26.56zm201.836 1.634c3.544 4.904 6.55 9.807 9.006 14.71a105.375 105.375 0 0 1-6.55 17.57c-.818-4.903-3.414-10.625-7.777-17.162.544-1.36 1.636-4.493 3.273-9.396a47.78 47.78 0 0 1 2.048-5.72z"/></svg>